<?xml version="1.0" encoding="utf-8"?>
<!-- Generator: Adobe Illustrator 27.5.0, SVG Export Plug-In . SVG Version: 6.00 Build 0)  -->
<svg version="1.1" xmlns="http://www.w3.org/2000/svg" xmlns:xlink="http://www.w3.org/1999/xlink" x="0px" y="0px"
	 viewBox="0 0 900 600" style="enable-background:new 0 0 900 600;" xml:space="preserve">
<g id="Layer_2">
	<g>
		<rect style="fill:#FFFFFF;" width="900" height="600"/>
	</g>
	<g style="opacity:0;">
		<rect style="fill:#FFFFFF;" width="900" height="600"/>
	</g>
</g>
<g id="Layer_1">
	<g>
		<g>
			<path style="fill:#EDF6FB;" d="M366.982,482.478c-15.713,0-29.385-1.12-41.372-3.346c-27.938-5.188-44.017-15.906-60.694-28.345
				c-25.541-19.048-51.848-40.324-71.233-66.804c-21.341-29.149-31.271-61.426-27.961-90.882
				c3.81-33.908,20.146-68.692,48.558-103.389c13.624-16.639,31.256-27.124,48.308-37.265c13.991-8.32,28.457-16.923,41.045-28.986
				c40.069-38.399,107.767-86.733,232.513-63.238c37.542,7.071,70.977,26.53,92.522,53.252c17.129,7.977,28.949,25.99,38.849,42.766
				c8.665,14.684,13.635,29.369,18.441,43.571c6.957,20.558,14.151,41.816,32.687,64.098c1.432,1.721,2.907,3.479,4.412,5.27
				c15.063,17.932,33.81,40.25,37.535,62.766c4.559,27.561-4.554,54.193-23.216,67.851c-12.659,9.265-30.574,13.494-51.782,12.238
				c-10.671-0.633-21.37-2.465-31.717-4.236c-7.128-1.22-14.499-2.481-21.791-3.339c-40.408-4.755-82.571,2.681-118.724,20.938
				c-22.926,11.578-23.69,21.175-24.304,28.886c-0.671,8.433-1.202,15.093-29.141,19.473
				C422.7,479.591,392.211,482.478,366.982,482.478z M473.395,55.045c-85.443,0-136.445,37.873-169.071,69.14
				c-12.67,12.142-27.187,20.775-41.226,29.124c-17.759,10.561-34.532,20.536-48.045,37.039
				c-28.287,34.544-44.55,69.154-48.337,102.866c-3.282,29.207,6.582,61.233,27.774,90.181
				c19.307,26.372,45.546,47.591,71.024,66.593c35.627,26.569,68.395,42.511,194.246,22.781c27.161-4.258,27.638-10.259,28.3-18.564
				c0.634-7.96,1.422-17.867,24.85-29.698c36.328-18.346,78.692-25.819,119.292-21.039c7.318,0.86,14.702,2.124,21.843,3.347
				c10.32,1.767,20.992,3.594,31.607,4.224c20.99,1.243,38.664-2.922,51.134-12.047c18.359-13.436,27.317-39.688,22.819-66.88
				c-3.681-22.247-22.33-44.448-37.314-62.287c-1.506-1.792-2.983-3.551-4.416-5.273c-18.653-22.424-25.878-43.772-32.864-64.416
				c-4.79-14.153-9.743-28.789-18.356-43.384c-9.888-16.756-20.826-33.449-36.603-41.526c3.107,3.994,5.951,8.146,8.506,12.436
				l-0.859,0.512c-2.879-4.834-6.125-9.487-9.705-13.939c-2.912-1.316-5.984-2.342-9.243-3.028l0.206-0.979
				c2.68,0.564,5.243,1.365,7.699,2.371c-21.428-25.764-54.093-44.495-90.694-51.389C513.276,56.935,492.468,55.045,473.395,55.045z
				"/>
			<path style="fill:#EDF6FB;" d="M195.639,359.873c-19.989-43.021-18.465-94.137,0.127-137.703
				c19.797-46.39,60.89-82.563,106.859-107.961c80.949-44.725,181.14-59.274,271.84-36.145c23.408,5.969,46.432,14.497,65.703,28.29
				c19.271,13.792,34.591,33.305,39.239,55.587c3.219,15.43,1.275,31.42,3.505,47.002c8.848,61.844,70.891,90.637,70.064,153.027
				c-0.517,38.986-28.978,66.281-68.823,90.518C649.216,473.738,290.406,563.825,195.639,359.873z"/>
		</g>
		<g>
			<g>
				<g>
					<path style="fill:#D7E8F3;" d="M713.65,442.032c-1.232,1.145-2.444,2.273-3.632,3.378c-4.57,4.262-8.781,8.242-12.155,11.806
						c-30.52,32.223-41.748,90.32-41.748,90.32h-17.957c0,0,0.824-7.925,3.232-20.242c4.17-21.367,13.078-56.54,30.646-89.666
						c0.653-1.236,1.319-2.459,1.996-3.687c9.006-16.29,20.163-31.93,33.953-45.007c1.343-1.275,3.236-2.705,5.497-4.119
						c0.677-0.424,1.386-0.844,2.123-1.26c10.416-5.873,26.318-10.483,33.15-0.495c0.111,0.158,0.218,0.325,0.321,0.491
						C758.998,399.484,734.138,422.974,713.65,442.032z"/>
				</g>
			</g>
			<g>
				<g>
					<path style="fill:#D7E8F3;" d="M726.942,313.739c-0.277,0.705-0.566,1.422-0.871,2.15
						c-5.168,12.385-14.151,27.728-27.953,46.504c-14.626,19.87-30.211,58.148-40.52,103.156c-0.004,0.024-0.012,0.048-0.016,0.071
						c-0.424,1.85-0.836,3.707-1.24,5.577c-0.024,0.107-0.048,0.214-0.071,0.321c-3.853,17.862-6.856,36.678-8.63,55.744
						c-0.574,6.155-1.014,14.123-1.319,20.274c-0.02,0.519-0.055-0.539-0.075,0h-27.269c-1.858-32.139,1.083-147.41,26.755-209.602
						c0.301-0.737,0.61-1.469,0.923-2.19c1.279-2.951,2.626-5.771,4.052-8.448c35.771-67.285,65.075-58.196,74.073-50.972
						c0.305,0.242,0.582,0.479,0.84,0.717c0.024,0.024,0.051,0.048,0.075,0.071C732.586,283.516,734.249,295.133,726.942,313.739z"
						/>
				</g>
			</g>
			<g>
				<g>
					<path style="fill:#D7E8F3;" d="M700.032,523.981c-6.203,9.118-13.13,17.761-18.181,23.555H653.14
						c0.149-0.334,22.112-76.365,53.272-70.642C721.6,479.683,712.085,506.264,700.032,523.981z"/>
				</g>
			</g>
		</g>
		<g>
			<g>
				<g>
					<g>
						<path style="fill:#AECEEA;" d="M725.694,277.112c-15.43,12.567-28.234,27.621-38.853,44.144
							c-0.246,0.38-0.487,0.76-0.729,1.145c-31.332,49.419-43.364,111.71-47.689,160.132c-0.036,0.404-0.071,0.808-0.107,1.212
							c-2.384,27.347-2.313,50.401-1.913,63.792h-0.527h-0.661c-0.59-19.783-0.665-71.816,11.347-126.586
							c3.774-17.189,8.436-33.359,13.941-48.37c0.147-0.408,0.297-0.816,0.448-1.22c3.869-10.428,8.151-20.29,12.824-29.53
							c13.636-26.967,30.793-48.999,51.004-65.507c0.305,0.242,0.582,0.479,0.84,0.717
							C725.643,277.065,725.67,277.089,725.694,277.112z"/>
					</g>
				</g>
			</g>
			<g>
				<g>
					<g>
						<path style="fill:#AECEEA;" d="M726.942,313.739c-0.277,0.705-0.566,1.422-0.871,2.15c-8.487,5.767-23.212,6.757-32.326,6.757
							c-3.822,0-6.658-0.174-7.632-0.246c-0.162-0.012-0.273-0.02-0.329-0.024l0.099-1.184c0.032,0.004,0.368,0.028,0.959,0.063
							C692.002,321.545,716.668,322.44,726.942,313.739z"/>
					</g>
				</g>
			</g>
			<g>
				<g>
					<g>
						<path style="fill:#AECEEA;" d="M661.728,372.097l-0.8,0.879c-0.142-0.131-0.285-0.261-0.424-0.396
							c-10.428-9.87-13.83-27.823-14.773-34.647c0.301-0.737,0.61-1.469,0.923-2.19c0.416,3.881,3.101,24.626,14.297,35.617
							C661.205,371.614,661.463,371.856,661.728,372.097z"/>
					</g>
				</g>
			</g>
			<g>
				<g>
					<g>
						<path style="fill:#AECEEA;" d="M656.27,471.518c-6.008,10.428-16.452,12.048-17.953,12.226
							c-0.111,0.016-0.174,0.02-0.182,0.02l-0.095-1.184c0.012,0,0.146-0.012,0.384-0.048c2.333-0.329,14.61-2.737,19.173-16.983
							L656.27,471.518z"/>
					</g>
				</g>
			</g>
		</g>
		<g>
			<g>
				<g>
					<g>
						<path style="fill:#AECEEA;" d="M708.619,477.534c-5.62,4.269-11.177,10.852-16.416,18.5c-0.246,0.356-0.487,0.713-0.729,1.073
							c-7.24,10.753-13.846,23.454-19.145,34.765c-0.174,0.372-0.349,0.737-0.515,1.105c-2.428,5.212-4.563,10.329-6.349,14.559
							c-0.032,0.075-0.063-0.075-0.095,0h-0.547h-0.55c4.598-10.927,11.588-26.777,19.806-40.833
							c0.301-0.511,0.602-1.022,0.903-1.529c6.84-11.486,14.48-21.925,22.278-28.092
							C707.744,477.205,708.195,477.356,708.619,477.534z"/>
					</g>
				</g>
			</g>
			<g>
				<g>
					<g>
						<path style="fill:#AECEEA;" d="M698.108,526.755c-0.749,1.061-1.501,2.107-2.257,3.137
							c-5.081,3.093-10.994,3.889-15.727,3.889c-4.04,0-7.228-0.578-8.309-0.804c-0.246-0.051-0.38-0.083-0.396-0.087l0.281-1.153
							c0.02,0.004,0.242,0.056,0.63,0.135C675.426,532.482,689.228,534.629,698.108,526.755z"/>
					</g>
				</g>
			</g>
			<g>
				<g>
					<g>
						<path style="fill:#AECEEA;" d="M714.231,488.802c-0.024,0.772-0.083,1.568-0.182,2.388
							c-4.234,5.347-11.331,6.444-16.452,6.444c-3.295,0-5.77-0.456-6.123-0.527c-0.04-0.008,0.202-1.168,0.202-1.168
							c0.016,0.004,0.202,0.04,0.527,0.095C695.074,496.497,708.841,498.192,714.231,488.802z"/>
					</g>
				</g>
			</g>
			<g>
				<g>
					<g>
						<path style="fill:#AECEEA;" d="M684.982,505.175c0.147,0.808,0.257,1.275,0.265,1.303l-1.153,0.289
							c-0.004-0.016-0.008-0.036-0.016-0.063c-0.269-1.109-2.891-12.733,2.143-22.456c0.951-0.867,1.921-1.675,2.907-2.416
							c-6.119,8.23-4.812,19.537-4.147,23.339C684.986,505.171,684.982,505.175,684.982,505.175z"/>
					</g>
				</g>
			</g>
		</g>
		<g>
			<g>
				<g>
					<path style="fill:#D7E8F3;" d="M417.469,547.845h-19.348c-2.975-20.102-9.679-49.629-24.534-71.137
						c-2.73-3.953-6.205-8.436-9.985-13.245c-0.988-1.243-1.987-2.517-3.016-3.811c-16.954-21.498-37.484-47.948-25.502-61.865
						v-0.01c0.143-0.143,0.255-0.285,0.387-0.418c8.1-8.64,22.792-1.793,31.982,5.441c0.652,0.52,1.274,1.029,1.865,1.538
						c1.977,1.712,3.597,3.372,4.707,4.809c11.381,14.712,19.827,31.513,26.093,48.61c0.469,1.294,0.937,2.578,1.375,3.872
						C412.609,493.662,416.318,526.276,417.469,547.845z"/>
				</g>
			</g>
			<g>
				<g>
					<path style="fill:#D7E8F3;" d="M360.335,523.724c6.071,8.924,12.85,17.382,17.794,23.053h28.099
						c-0.146-0.327-21.641-74.738-52.138-69.137C339.227,480.37,348.539,506.385,360.335,523.724z"/>
				</g>
			</g>
			<g>
				<g>
					<g>
						<g>
							<path style="fill:#AECEEA;" d="M351.931,478.266c5.5,4.178,10.939,10.621,16.067,18.105c0.24,0.349,0.477,0.698,0.713,1.05
								c7.086,10.524,13.551,22.955,18.737,34.025c0.171,0.364,0.341,0.721,0.504,1.081c2.376,5.101,4.465,10.109,6.213,14.249
								c0.031,0.074,0.062-0.074,0.093,0h0.535h0.539c-4.5-10.694-11.342-26.207-19.385-39.963c-0.295-0.5-0.589-1-0.884-1.496
								c-6.694-11.241-14.171-21.458-21.803-27.493C352.787,477.945,352.345,478.092,351.931,478.266z"/>
						</g>
					</g>
				</g>
				<g>
					<g>
						<g>
							<path style="fill:#AECEEA;" d="M362.218,526.439c0.733,1.039,1.469,2.062,2.209,3.07c4.973,3.027,10.76,3.806,15.392,3.806
								c3.954,0,7.074-0.566,8.132-0.787c0.24-0.05,0.372-0.081,0.388-0.085l-0.275-1.128c-0.019,0.004-0.236,0.054-0.616,0.132
								C384.417,532.044,370.908,534.145,362.218,526.439z"/>
						</g>
					</g>
				</g>
				<g>
					<g>
						<g>
							<path style="fill:#AECEEA;" d="M346.438,489.294c0.023,0.756,0.081,1.535,0.178,2.337c4.143,5.233,11.09,6.307,16.101,6.307
								c3.225,0,5.648-0.446,5.993-0.516c0.039-0.008-0.198-1.143-0.198-1.143c-0.015,0.004-0.198,0.039-0.515,0.093
								C365.187,496.825,351.714,498.484,346.438,489.294z"/>
						</g>
					</g>
				</g>
				<g>
					<g>
						<g>
							<path style="fill:#AECEEA;" d="M375.064,505.318c-0.143,0.791-0.252,1.248-0.26,1.275l1.128,0.283
								c0.004-0.016,0.008-0.035,0.015-0.062c0.264-1.085,2.83-12.462-2.097-21.978c-0.93-0.849-1.88-1.64-2.845-2.364
								c5.989,8.055,4.71,19.121,4.058,22.842C375.06,505.314,375.064,505.318,375.064,505.318z"/>
						</g>
					</g>
				</g>
			</g>
			<g>
				<g>
					<g>
						<g>
							<path style="fill:#AECEEA;" d="M406.516,547.845h-1.111c-3.811-30.372-9.903-56.639-18.228-78.728
								c-0.143-0.387-0.295-0.774-0.448-1.161c-12.44-32.492-29.802-55.813-51.962-69.67l0.316-0.499v-0.01l0.306-0.469
								c0.031,0.02,0.051,0.031,0.081,0.051c12.023,7.529,22.69,17.83,31.901,30.77c0.275,0.387,0.55,0.774,0.825,1.172
								c6.134,8.803,11.615,18.798,16.404,29.944c3.047,7.071,5.828,14.682,8.345,22.812c0.143,0.428,0.275,0.846,0.397,1.273
								C399.119,502.21,403.511,523.82,406.516,547.845z"/>
						</g>
					</g>
				</g>
				<g>
					<g>
						<g>
							<path style="fill:#AECEEA;" d="M360.594,459.657c1.017,1.287,2.02,2.56,3.003,3.807c4.584,2.918,9.917,4.348,14.387,5.041
								c4.451,0.689,8.051,0.647,9.217,0.608c0.197-0.005,0.323-0.009,0.375-0.013l-0.063-1.163
								c-0.02,0.001-0.285,0.015-0.753,0.021C383.322,468.002,368.954,467.675,360.594,459.657z"/>
						</g>
					</g>
				</g>
				<g>
					<g>
						<g>
							<path style="fill:#AECEEA;" d="M367.375,428.132c-0.173,0.511-0.288,0.799-0.296,0.821l1.078,0.434
								c0.007-0.018,0.019-0.048,0.037-0.088c0.512-1.309,5.098-13.594,1.128-24.96c-0.591-0.511-1.214-1.023-1.865-1.536
								C372.014,412.993,368.477,424.938,367.375,428.132z"/>
						</g>
					</g>
				</g>
				<g>
					<g>
						<g>
							<path style="fill:#AECEEA;" d="M392.315,482.699l0.771,0.872c0.009-0.01,0.109-0.097,0.276-0.263
								c1.452-1.45,8.172-8.85,8.135-21.682c-0.447-1.293-0.907-2.576-1.378-3.865c1.479,13.726-5.025,21.983-7.149,24.278
								C392.575,482.465,392.329,482.686,392.315,482.699z"/>
						</g>
					</g>
				</g>
			</g>
		</g>
		<g>
			<g>
				<g>
					<g>
						<path style="fill:#AECEEA;" d="M648.447,547.536h-1.155c10.873-45.209,25.063-82.353,42.177-109.674
							c16.697-26.655,36.675-45.107,59.379-54.844l0.468,1.092C703.751,403.652,669.813,458.697,648.447,547.536z"/>
					</g>
				</g>
			</g>
			<g>
				<g>
					<g>
						<path style="fill:#AECEEA;" d="M713.646,442.036c-1.228,1.141-2.44,2.269-3.628,3.374c-5.085,2.23-10.693,2.84-15.315,2.84
							c-4.602,0-8.23-0.606-9.402-0.828c-0.198-0.036-0.325-0.059-0.376-0.071l0.245-1.164c0.02,0.004,0.285,0.059,0.757,0.139
							C689.392,446.907,703.951,448.824,713.646,442.036z"/>
					</g>
				</g>
			</g>
			<g>
				<g>
					<g>
						<path style="fill:#AECEEA;" d="M711.729,409.144c0.095,0.542,0.166,0.851,0.17,0.875l-1.156,0.269
							c-0.004-0.02-0.012-0.051-0.024-0.095c-0.313-1.402-3.022-14.523,2.764-25.379c0.677-0.424,1.386-0.844,2.123-1.26
							C709.412,393.132,711.115,405.746,711.729,409.144z"/>
					</g>
				</g>
			</g>
			<g>
				<g>
					<g>
						<path style="fill:#AECEEA;" d="M678.013,460.341l-0.915,0.76c-0.008-0.012-0.095-0.115-0.238-0.309
							c-1.24-1.691-6.867-10.214-4.824-23.165c0.653-1.236,1.319-2.459,1.996-3.687c-3.64,13.628,1.636,22.983,3.422,25.633
							C677.787,460.064,678.001,460.326,678.013,460.341z"/>
					</g>
				</g>
			</g>
		</g>
		<g>
			<g>
				<g>
					<g>
						<g>
							<g>
								<path style="fill:#363347;" d="M631.479,125.632v411.09c0,5.74-4.645,10.397-10.397,10.397H419.015
									c-5.74,0-10.397-4.657-10.397-10.397v-411.09c0-5.752,4.657-10.397,10.397-10.397h202.067
									C626.834,115.235,631.479,119.88,631.479,125.632z"/>
							</g>
						</g>
					</g>
				</g>
			</g>
			<g>
				<g>
					<g>
						<g>
							<g>
								<path style="fill:#516A96;" d="M624.097,125.632v411.09c0,5.74-4.645,10.397-10.397,10.397H411.633
									c-5.74,0-10.397-4.657-10.397-10.397v-411.09c0-5.752,4.657-10.397,10.397-10.397H613.7
									C619.452,115.235,624.097,119.88,624.097,125.632z"/>
							</g>
						</g>
					</g>
				</g>
			</g>
			<g>
				<g>
					<g>
						<g>
							<g>
								<path style="fill:#EEF6FB;" d="M599.717,508.516H425.615c-7.687,0-13.94-6.604-13.94-14.722V161.167
									c0-8.118,6.253-14.722,13.94-14.722h174.102c7.687,0,13.94,6.604,13.94,14.722v332.627
									C613.657,501.912,607.404,508.516,599.717,508.516z"/>
							</g>
						</g>
					</g>
				</g>
			</g>
			<g style="opacity:0.77;">
				<path style="fill:#FFFFFF;" d="M523.55,146.441l-81.378,362.074c0,0-17.583-0.031-18.093-0.083l81.378-361.991H523.55z"/>
			</g>
			<g style="opacity:0.77;">
				<polygon style="fill:#FFFFFF;" points="596.048,146.441 509.465,508.515 473.091,508.515 559.684,146.441 				"/>
			</g>
			<g>
				<g>
					<g>
						<g>
							<g>
								<path style="fill:#2D313D;" d="M599.718,509.016H488.091v-1h111.627c7.41,0,13.439-6.38,13.439-14.222v-91.007h1v91.007
									C614.157,502.188,607.68,509.016,599.718,509.016z M467.681,509.016h-30.065v-1h30.065V509.016z"/>
							</g>
						</g>
					</g>
				</g>
			</g>
		</g>
		<g>
			<g>
				<g>
					<g>
						<g>
							<g>
								<polygon style="fill:#F0AB8F;" points="183.665,537.67 182.011,518.321 196.197,518.321 195.338,537.67 								"/>
							</g>
						</g>
					</g>
				</g>
				<g>
					<g>
						<g>
							<path style="fill:#E09B82;" d="M182.055,518.628l0.943,10.89c4.997,0.319,9.823-0.296,12.748-0.8l0.509-11.246
								L182.055,518.628z"/>
						</g>
					</g>
				</g>
			</g>
			<g>
				<g>
					<g>
						<g>
							<path style="fill:#2D313D;" d="M179.926,548.021h36.902c0.045-0.437,0.133-1.786-0.148-3.201
								c-0.015-0.03-36.235,0.207-36.235,0.207L179.926,548.021z"/>
						</g>
					</g>
				</g>
				<g>
					<g>
						<g>
							<path style="fill:#2D313D;" d="M180.445,545.028l36.22-0.237c-0.348-3.749-5.053-5.512-9.446-6.631
								c-0.296-0.074-0.585-0.141-0.874-0.215c-0.63-0.148-1.245-0.281-1.83-0.415c-0.304-0.067-0.6-0.133-0.882-0.193
								c-1.519-0.341-2.778-0.63-3.504-0.971c-0.652-0.311-1.445-0.763-2.134-1.178c-0.237-0.141-0.452-0.281-0.652-0.407
								c-0.652-0.408-1.119-0.719-1.119-0.719c-2.371,0.778-5.942,3.008-13.78-0.541l-0.237,1.363l-0.133,0.771L180.445,545.028z"/>
						</g>
					</g>
				</g>
				<g>
					<g>
						<g>
							<g>
								<g>
									<path style="fill:#2D313D;" d="M206.345,537.946c0.548,1.267,0.608,2.63,0.608,2.645l0.741-0.03
										c-0.007-0.074-0.052-1.185-0.474-2.4C206.923,538.086,206.634,538.02,206.345,537.946z"/>
								</g>
							</g>
						</g>
					</g>
					<g>
						<g>
							<g>
								<g>
									<path style="fill:#2D313D;" d="M203.633,537.338c0.607,1.311,0.667,2.763,0.667,2.778l0.741-0.022
										c0-0.081-0.052-1.289-0.526-2.563C204.211,537.464,203.915,537.398,203.633,537.338z"/>
								</g>
							</g>
						</g>
					</g>
				</g>
				<g>
					<g>
						<g>
							<g>
								<path style="fill:#2D313D;" d="M182.074,535.657c3.23,1.608,5.993,2.163,8.283,2.163c4.23,0,6.816-1.911,7.638-2.63
									c-0.237-0.141-0.452-0.281-0.652-0.407c-1.378,1.178-6.423,4.541-15.135,0.104L182.074,535.657z"/>
							</g>
						</g>
					</g>
				</g>
			</g>
			<g>
				<g>
					<path style="fill:#DF6659;" d="M207.421,524.662c-13.416,2.105-25.883,2.983-35.363,0c0,0-8.022-89.924,6.198-172.547
						l28.44,0.124C206.696,352.24,217.634,451.536,207.421,524.662z"/>
				</g>
			</g>
			<g>
				<g>
					<g>
						<path style="fill:#2D313D;" d="M210.196,270.116c5.323-0.44,8.833-2.138,10.436-5.047c2.39-4.339-0.36-9.701-0.477-9.928
							l-0.68,0.355c0.027,0.052,2.676,5.231,0.484,9.207c-1.471,2.668-4.777,4.233-9.825,4.65L210.196,270.116z"/>
					</g>
				</g>
			</g>
			<g>
				<g>
					<g>
						<g>
							<g>
								<polygon style="fill:#F0AB8F;" points="266.75,537.67 260.651,518.321 274.837,518.321 279.164,537.67 								"/>
							</g>
						</g>
					</g>
				</g>
				<g>
					<g>
						<g>
							<path style="fill:#E09B82;" d="M260.621,518.156l3.363,10.639c6.386,1.141,11.305,0.059,13.054-0.43l-2.415-10.809h-5.067
								L260.621,518.156z"/>
						</g>
					</g>
				</g>
			</g>
			<g>
				<g>
					<g>
						<path style="fill:#AECEEA;" d="M191.716,294.95c0,0-38.285,7.019-34.838,44.886c1.433,15.742,13.331,26.623,13.331,26.623
							l4.369-13.307l15.314,5.15L191.716,294.95z"/>
					</g>
				</g>
			</g>
			<g>
				<g>
					<g>
						<polygon style="fill:#F0AB8F;" points="210.229,299.854 210.751,279.094 198.723,277.217 192.709,297.119 						"/>
					</g>
				</g>
			</g>
			<g>
				<g>
					<g>
						<path style="fill:#F0AB8F;" d="M206.031,286.406c-7.27-3.324-14.609-15.219-9.362-26.821
							c4.162-9.203,20.178-3.986,23.275,4.954C224.748,278.405,222.738,294.045,206.031,286.406z"/>
					</g>
				</g>
			</g>
			<g>
				<g>
					<g>
						<g>
							<path style="fill:#F0AB8F;" d="M271.307,316.086c0.576-0.705,2.501-2.907,2.662-3.803c0.15-0.831,0.382-5.424,1.352-5.287
								c1.016,0.144,0.198,3.272,1.019,3.249c0.506-0.014,2.211-6.119,3.277-5.493c0.7,0.41-0.836,3.966-0.395,4.043
								c0.409,0.071,1.388-4.706,2.455-4.15c1.118,0.582-1.753,5.162-1.222,5.401c0.263,0.118,2.321-5.455,3.18-4.977
								c1.149,0.638-1.732,4.906-1.233,5.242c0.245,0.165,0.994-1.525,1.567-2.474c0.318-0.526,0.793-0.355,0.771,0.062
								c-0.231,4.318-5.534,9.691-5.787,10.381c-0.377,1.026-0.768,2.022-1.174,2.988L271.307,316.086z"/>
						</g>
					</g>
				</g>
			</g>
			<g>
				<g>
					<g>
						<path style="fill:#DF6659;" d="M285.619,523.799c-12.95,1.831-25.063,2.257-35.579,0
							c-43.644-80.965-61.91-172.422-61.91-172.422h33.721C265.408,426.409,285.619,523.799,285.619,523.799z"/>
					</g>
				</g>
			</g>
			<g>
				<g>
					<g>
						<path style="fill:#AECEEA;" d="M257.16,327.325l14.353-13.822l8.063,6.645c0,0-3.411,37.212-28.529,34.421
							c-17.701-1.967-29.181-36.164-29.181-36.164L257.16,327.325z"/>
					</g>
				</g>
			</g>
			<g>
				<g>
					<g>
						<path style="fill:#AECEEA;" d="M169.821,376.018c30.447,13.859,74.703,1.728,74.703,1.728l-1.35-4.484l-0.207-0.693
							l-11.51-38.33l30.268-0.364c0,0-20.279-28.454-32.089-35.374c-3.085-1.807-7.219-3.17-11.896-4.027
							c-0.364-0.064-0.735-0.129-1.107-0.186c-7.605-1.242-16.501-1.157-24.606,0.557c-0.286,0.057-0.571,0.121-0.85,0.186
							c-4.548,1.028-8.818,2.578-12.438,4.706c0,0,2.171,12.224-0.871,20.529c-6.919,18.879-7.962,41.429-8.069,51.04
							c-0.007,0.271-0.007,0.528-0.007,0.778C169.771,374.583,169.821,376.018,169.821,376.018z"/>
					</g>
				</g>
			</g>
			<g>
				<g>
					<path style="fill:#9CC0DB;" d="M196.438,382.313c0.45,0.034,0.901,0.068,1.351,0.101c0.327,0.023,0.653,0.045,0.98,0.056
						c23.689,1.329,45.756-4.729,45.756-4.729l-1.351-4.481l-0.203-0.687l-8.944-29.903c-1.509-1.542-9.095-13.902-10.277-18.901
						c0,0-0.503,12.792,3.521,23.284c2.54,6.623,5.39,16.461,2.012,22.71C224.903,377.86,196.82,382.201,196.438,382.313z"/>
				</g>
			</g>
			<g>
				<g>
					<g>
						
							<rect x="253.283" y="313.284" transform="matrix(0.7752 -0.6317 0.6317 0.7752 -147.209 232.9161)" style="fill:#2D313D;" width="0.767" height="20.034"/>
					</g>
				</g>
			</g>
			<g>
				<g>
					<g>
						<path style="fill:#2D313D;" d="M212.875,287.941c3.837,0.29,6.068-1.538,6.194-1.644l-0.494-0.586
							c-0.159,0.133-3.966,3.216-10.334,0.118l-0.336,0.689C209.77,287.425,211.436,287.832,212.875,287.941z"/>
					</g>
				</g>
			</g>
			<g>
				<g>
					<g>
						<g>
							<path style="fill:#2D313D;" d="M169.792,372.083c11.717,4.82,24.263,6.398,35.688,6.398c17.58,0,32.51-3.749,37.694-5.22
								l-0.207-0.693c-8.511,2.428-43.571,11.046-73.168-1.264C169.792,371.576,169.792,371.833,169.792,372.083z"/>
						</g>
					</g>
				</g>
			</g>
			<g>
				<g>
					<g>
						<path style="fill:#2D313D;" d="M170.203,376.019c0-0.326,0.107-32.923,8.025-55.627l-0.723-0.252
							c-7.962,22.828-8.069,55.552-8.069,55.879H170.203z"/>
					</g>
				</g>
			</g>
			<g>
				<g>
					<g>
						<g>
							<path style="fill:#2D313D;" d="M191.178,295.031c3.32,3.192,7.233,4.277,11.039,4.277c7.333,0,14.231-4.041,15.523-4.834
								c-0.364-0.064-0.735-0.129-1.107-0.186c-3.484,2.007-16.052,8.283-24.606,0.557
								C191.742,294.903,191.456,294.967,191.178,295.031z"/>
						</g>
					</g>
				</g>
			</g>
			<g>
				<g>
					<g>
						<g>
							<path style="fill:#2D313D;" d="M262.775,548.021h36.902c0.044-0.437,0.133-1.786-0.148-3.201
								c-0.015-0.03-36.235,0.207-36.235,0.207L262.775,548.021z"/>
						</g>
					</g>
				</g>
				<g>
					<g>
						<g>
							<path style="fill:#2D313D;" d="M263.293,545.028l36.22-0.237c-0.348-3.749-5.052-5.512-9.446-6.631
								c-0.296-0.074-0.585-0.141-0.874-0.215c-0.63-0.148-1.245-0.281-1.83-0.415c-0.304-0.067-0.6-0.133-0.882-0.193
								c-1.519-0.341-2.778-0.63-3.504-0.971c-0.652-0.311-1.445-0.763-2.134-1.178c-0.237-0.141-0.452-0.281-0.652-0.407
								c-0.652-0.408-1.119-0.719-1.119-0.719c-2.371,0.778-5.942,3.008-13.78-0.541l-0.237,1.363l-0.133,0.771L263.293,545.028z"/>
						</g>
					</g>
				</g>
				<g>
					<g>
						<g>
							<g>
								<g>
									<path style="fill:#2D313D;" d="M289.193,537.946c0.548,1.267,0.607,2.63,0.607,2.645l0.741-0.03
										c-0.007-0.074-0.052-1.185-0.474-2.4C289.771,538.086,289.482,538.02,289.193,537.946z"/>
								</g>
							</g>
						</g>
					</g>
					<g>
						<g>
							<g>
								<g>
									<path style="fill:#2D313D;" d="M286.482,537.338c0.608,1.311,0.667,2.763,0.667,2.778l0.741-0.022
										c0-0.081-0.052-1.289-0.526-2.563C287.06,537.464,286.763,537.398,286.482,537.338z"/>
								</g>
							</g>
						</g>
					</g>
				</g>
				<g>
					<g>
						<g>
							<g>
								<path style="fill:#2D313D;" d="M264.923,535.657c3.23,1.608,5.993,2.163,8.283,2.163c4.23,0,6.816-1.911,7.638-2.63
									c-0.237-0.141-0.452-0.281-0.652-0.407c-1.378,1.178-6.423,4.541-15.135,0.104L264.923,535.657z"/>
							</g>
						</g>
					</g>
				</g>
			</g>
			<g>
				<g>
					<g>
						
							<rect x="224.717" y="326.625" transform="matrix(0.7561 -0.6545 0.6545 0.7561 -160.9539 227.7828)" style="fill:#2D313D;" width="0.766" height="6.381"/>
					</g>
				</g>
			</g>
			<g>
				<g>
					<g>
						<path style="fill:#2D313D;" d="M173.326,372.012h0.766c0-7.46,0.902-16.826,0.911-16.919l-0.763-0.074
							C174.231,355.112,173.326,364.514,173.326,372.012z"/>
					</g>
				</g>
			</g>
			<g>
				<g>
					<path style="fill:#2D313D;" d="M165.469,311.518c7.161,5.948,26.084,7.738,35.257-6.886
						c6.759-10.776,6.371-24.239,5.774-28.063l3.052-6.146c0,0,10.984-2.887,10.254-15.149c0,0-1.275,0.724-4.712-0.109
						c-1.91-0.469-6.73-3.17-11.949-2.879c-0.011-0.002-0.033-0.005-0.046,0.004c-4.653-0.122-14.669,1.551-17.993,16.495
						c-2.744,12.323-13.32,12.04-19.007,16.28C154.716,293.533,157.377,304.796,165.469,311.518z"/>
				</g>
			</g>
			<g>
				<g>
					<g>
						<path style="fill:#F0AB8F;" d="M204.448,272.827c-0.292,1.87,0.988,3.623,2.857,3.914c1.87,0.292,3.623-0.987,3.915-2.858
							c0.292-1.87-0.987-3.623-2.857-3.914C206.493,269.677,204.74,270.957,204.448,272.827z"/>
					</g>
				</g>
			</g>
			<g>
				<g>
					<g>
						<path style="fill:#2D313D;" d="M156.914,290.324c1.283-3.058,3.748-5.747,7.324-7.994c1.675-1.054,3.738-1.716,5.92-2.417
							c5.371-1.723,11.458-3.676,14.095-12.264c4.393-14.322,14.34-14.868,18.413-14.439l0.174-0.003
							c3.721,0.142,7.06,1.764,9.28,2.844c0.818,0.398,1.464,0.711,1.961,0.876l0.265-0.802c-0.445-0.147-1.099-0.465-1.856-0.834
							c-2.32-1.128-5.827-2.831-9.724-2.924l-0.05-0.001c-4.305-0.444-14.707,0.158-19.271,15.035
							c-2.508,8.166-8.119,9.966-13.545,11.707c-2.236,0.717-4.347,1.395-6.112,2.506c-3.726,2.34-6.301,5.16-7.654,8.382
							L156.914,290.324z"/>
					</g>
				</g>
			</g>
			<g>
				<g>
					<path style="fill:#C9544B;" d="M178.412,526.04c8.399,1.182,18.408,0.293,29.003-1.373c3.986-28.541,4.538-60.637,3.998-89.696
						c-0.022,0.336-8.72-27.692-8.72-27.692s3.79,21.894,2.491,35.07c-1.342,13.607-6.324,17.631-8.241,32.962
						c-1.12,8.962,3.354,15.715,1.725,25.105c-1.714,9.884-9.29,15.998-16.687,22.64
						C180.912,524.025,179.583,524.993,178.412,526.04z"/>
				</g>
			</g>
			<g>
				<g>
					<g>
						<path style="fill:#2D313D;" d="M211.847,436.615l0.798-0.277c-3.546-10.178-6.949-20.674-10.116-31.196l-0.809,0.244
							C204.892,415.919,208.299,426.426,211.847,436.615z"/>
					</g>
				</g>
			</g>
			<g>
				<g>
					<path style="fill:#C9544B;" d="M248.015,519.987c0.664,1.272,1.34,2.544,2.027,3.817c10.516,2.252,22.63,1.824,35.578,0
						c0,0-9.21-44.371-28.586-96.286c-0.901,9.514,1.441,19.422,4.233,28.71c3.682,12.216,8.174,24.657,7.048,37.368
						c-0.811,9.21-5.562,19.028-13.646,23.97C252.743,518.749,250.402,519.413,248.015,519.987z"/>
				</g>
			</g>
			<g>
				<g>
					<g>
						<path style="fill:#2D313D;" d="M270.143,467.389l0.807-0.248c-9.946-32.192-21.248-61.545-33.591-87.241l-0.761,0.365
							C248.922,405.924,260.209,435.238,270.143,467.389z"/>
					</g>
				</g>
			</g>
			<g>
				<g>
					<g>
						<path style="fill:#2D313D;" d="M253.674,355.093c-0.873,0-1.763-0.05-2.669-0.15c-13.846-1.539-23.941-22.582-27.639-31.558
							l0.693-0.285c3.647,8.852,13.581,29.602,27.029,31.097c5.681,0.634,10.694-0.787,14.899-4.218
							c11.191-9.129,13.196-29.658,13.215-29.864l0.747,0.068c-0.02,0.209-2.052,21.046-13.487,30.376
							C262.768,353.573,258.475,355.093,253.674,355.093z"/>
					</g>
				</g>
			</g>
		</g>
		<g>
			<g>
				<path style="fill:#FFFFFF;" d="M308.525,166.343v45.978c0,6.233-5.053,11.285-11.285,11.285h-63.028l-13.895,12.351v-12.351
					h-0.306c-6.233,0-11.285-5.053-11.285-11.285v-45.978c0-6.233,5.053-11.285,11.285-11.285h77.228
					C303.473,155.058,308.525,160.111,308.525,166.343z"/>
			</g>
		</g>
		<g>
			<g>
				<g>
					<path style="fill:#363347;" d="M250.572,195.819c3.575-0.773,6.469-2.776,7.552-5.228c0.734-1.664,0.609-3.513-0.353-5.206
						c-1.263-2.224-3.721-3.761-6.576-4.11c-3.045-0.37-6.453,0.49-9.122,2.308c-2.393,1.631-3.25,2.463-4.317,4.834l1.556,0.7
						c0.876-1.947,1.432-2.564,3.721-4.123c2.301-1.568,5.345-2.342,7.954-2.025c2.285,0.28,4.316,1.529,5.299,3.259
						c0.689,1.212,0.786,2.517,0.275,3.674c-0.853,1.932-3.345,3.6-6.351,4.249L250.572,195.819z"/>
				</g>
			</g>
			<g>
				<g>
					<path style="fill:#363347;" d="M231.625,202.571c-2.04-2.248-3.205-5.014-3.369-7.931c-0.32-0.621-0.595-1.262-0.825-1.921
						c-1.358-3.904-0.926-7.982,1.217-11.485c4.704-7.687,17.041-12.328,28.091-10.566c10.858,1.732,19.092,9.224,19.579,17.815
						c0.463,8.175-6.362,16.442-16.229,19.655c-3.053,0.994-6.32,1.467-9.554,1.467
						C243.029,209.605,235.697,207.059,231.625,202.571z M230.103,182.125c-1.608,2.628-2.113,5.628-1.47,8.585
						c0.854-3.458,3.046-6.743,6.224-9.244c2.826-2.224,7.925-4.466,10.699-4.703c3.859-0.33,9.466-0.263,14.258,1.934
						c4.006,1.836,6.73,5.136,7.475,9.055c0.707,3.717-0.476,7.5-3.243,10.38c-5.634,5.863-17.256,8.047-25.909,4.867
						c-2.899-1.064-5.395-2.702-7.315-4.745c0.49,1.132,1.181,2.196,2.066,3.171c5.41,5.964,17.127,8.201,26.673,5.091
						c9.143-2.978,15.474-10.521,15.054-17.937c-0.435-7.67-8.235-14.646-18.144-16.226c-1.448-0.231-2.928-0.342-4.413-0.342
						C243.035,172.011,233.793,176.095,230.103,182.125z M245.702,178.462c-2.463,0.211-7.22,2.322-9.789,4.345l0,0
						c-3.456,2.72-5.618,6.43-5.932,10.178c-0.034,0.401-0.047,0.799-0.039,1.193c1.762,3.208,4.863,5.78,8.784,7.22
						c7.939,2.916,18.971,0.88,24.091-4.448c2.379-2.476,3.399-5.713,2.797-8.88c-0.641-3.369-3.013-6.221-6.509-7.824
						c-2.754-1.262-6.312-1.922-10.242-1.922C247.832,178.325,246.776,178.37,245.702,178.462z"/>
				</g>
			</g>
			<g>
				<g>
					<g>
						<path style="fill:#363347;" d="M286.109,196.823c2.387-2.026,4.15-4.547,5.1-7.29c1.644-4.67,0.819-9.492-2.263-13.225
							c-2.075-2.512-6.211-4.941-11.063-6.498l-0.521,1.625c4.555,1.461,8.394,3.689,10.269,5.959
							c2.691,3.26,3.409,7.48,1.967,11.576c-0.852,2.459-2.439,4.723-4.594,6.552L286.109,196.823z"/>
					</g>
				</g>
				<g>
					<g>
						<path style="fill:#363347;" d="M272.41,204.257c8.004,0,13.573-2.841,16.541-6.333c1.905-2.241,2.658-5.104,2.301-8.753
							c-0.465-4.746-3.531-9.1-8.202-11.646l-0.816,1.498c4.175,2.276,6.912,6.132,7.32,10.314c0.309,3.165-0.313,5.612-1.902,7.482
							c-4.104,4.828-13.781,8.25-28.639,3.373l-0.532,1.621C263.726,203.535,268.378,204.256,272.41,204.257z"/>
					</g>
				</g>
			</g>
			<g>
				<g>
					<path style="fill:#363347;" d="M241.454,203.861l1.263-1.147c5.135,5.658,16.729,9.793,26.506,6.609
						c9.643-3.142,16.614-10.821,16.215-17.864c-0.435-7.67-8.235-14.646-18.144-16.226c-10.244-1.637-22.07,2.75-26.368,9.773
						c-1.871,3.057-2.248,6.62-1.061,10.032c1.441,4.141,4.97,7.509,9.684,9.241c7.941,2.916,18.972,0.879,24.091-4.448
						c2.379-2.476,3.398-5.712,2.797-8.879c-0.64-3.37-3.013-6.221-6.509-7.824c-3.93-1.802-9.129-2.06-13.244-0.658
						c-4.082,1.39-7.03,4.421-7.303,7.456c0.982-1.378,2.158-2.536,3.516-3.462c2.668-1.818,6.078-2.684,9.121-2.308
						c2.854,0.349,5.313,1.886,6.576,4.11c0.962,1.694,1.087,3.542,0.353,5.206c-1.662,3.765-7.437,6.236-12.613,5.392
						c-3.218-0.523-5.899-2.222-7.395-4.448c-0.804,2.217-0.825,4.145-0.059,5.741c0.439,0.915,1.242,1.772,2.263,2.414
						l-0.909,1.445c-1.289-0.811-2.317-1.92-2.893-3.121c-1.106-2.307-0.956-5.058,0.448-8.178c0.053-0.119,0.108-0.237,0.164-0.353
						c-0.213-0.697-0.317-1.421-0.297-2.158c0.101-3.841,3.587-7.688,8.478-9.353c4.576-1.558,10.134-1.282,14.505,0.722
						c4.006,1.836,6.73,5.137,7.475,9.056c0.706,3.717-0.476,7.5-3.243,10.38c-5.633,5.862-17.256,8.046-25.909,4.868
						c-5.195-1.908-9.098-5.656-10.707-10.282c-1.358-3.903-0.926-7.981,1.217-11.483c4.705-7.687,17.048-12.329,28.092-10.566
						c10.858,1.732,19.092,9.224,19.579,17.814c0.442,7.791-7.034,16.21-17.39,19.583c-2.5,0.814-5.112,1.179-7.715,1.178
						C253.785,212.124,245.628,208.461,241.454,203.861z M253.856,187.874c-1.662,1.132-3.018,2.672-4.042,4.587
						c1.014,2.302,3.621,4.202,6.794,4.719c4.392,0.717,9.427-1.34,10.777-4.398c0.511-1.157,0.413-2.462-0.276-3.674
						c-0.983-1.731-3.014-2.979-5.3-3.259c-0.387-0.048-0.784-0.071-1.187-0.071C258.315,185.779,255.815,186.539,253.856,187.874z"
						/>
				</g>
			</g>
			<g>
				<g>
					<path style="fill:#363347;" d="M235.744,195.982c-2.324-2.561-3.232-6.145-2.557-10.094c0.226-1.321,0.612-2.626,1.138-3.889
						c-0.488-3.123,0.136-6.257,1.833-9.031c4.483-7.326,15.793-11.138,27.499-9.269c11.61,1.852,19.716,8.489,20.171,16.516
						c0.463,8.175-6.362,16.441-16.229,19.656c-3.851,1.255-8.466,1.909-13.037,1.909
						C246.883,201.78,239.329,199.933,235.744,195.982z M237.614,173.859c-0.975,1.593-1.544,3.322-1.698,5.096
						c1.949-3.071,4.752-5.725,8.082-7.524l0.811,1.501c-3.839,2.075-6.987,5.501-8.71,9.298c0.11,0.556,0.261,1.111,0.453,1.661
						c1.441,4.141,4.97,7.509,9.684,9.24c7.94,2.916,18.972,0.88,24.091-4.448c2.379-2.476,3.398-5.712,2.797-8.88
						c-0.64-3.369-3.013-6.221-6.509-7.823c-3.93-1.8-9.128-2.06-13.244-0.658c-4.229,1.44-7.24,4.64-7.322,7.783l-1.705-0.045
						c0.1-3.842,3.587-7.688,8.478-9.353c4.576-1.558,10.134-1.282,14.504,0.721c4.006,1.836,6.73,5.137,7.475,9.056
						c0.706,3.717-0.476,7.5-3.243,10.38c-5.633,5.862-17.255,8.045-25.909,4.867c-5.003-1.838-8.807-5.381-10.519-9.771
						c-0.104,0.404-0.191,0.809-0.261,1.214c-0.584,3.42,0.176,6.495,2.139,8.66c5.294,5.834,20.238,6.614,30.064,3.414
						c9.143-2.979,15.474-10.522,15.054-17.937c-0.409-7.206-7.938-13.206-18.736-14.928c-1.845-0.295-3.688-0.436-5.498-0.436
						C249.037,164.948,240.99,168.342,237.614,173.859z"/>
				</g>
			</g>
			<g>
				<path style="fill:#363347;" d="M250.936,215.923c0.708-0.621,1.44-1.263,2.218-1.869c3.018-2.351,6.288-4.02,9.72-4.962
					c16.25-4.458,14.014-15.637,13.911-16.108l1.665-0.372c0.029,0.132,2.74,13.225-15.124,18.126
					c-3.214,0.882-6.283,2.45-9.123,4.662c-0.739,0.576-1.452,1.201-2.142,1.806L250.936,215.923z"/>
			</g>
		</g>
		<g>
			<g>
				<path style="fill:#2D313D;" d="M220.817,235.958h-1v-11.852h-0.426c-5.024,0-9.502-3.189-11.142-7.935l0.945-0.326
					c1.501,4.343,5.599,7.261,10.197,7.261h1.426V235.958z"/>
			</g>
			<g>
				<path style="fill:#2D313D;" d="M208.605,206.835h-1v-40.492c0-6.499,5.287-11.785,11.786-11.785h18.632v1h-18.632
					c-5.947,0-10.786,4.838-10.786,10.785V206.835z"/>
			</g>
			<g>
				<rect x="248.62" y="154.558" style="fill:#2D313D;" width="17.766" height="1"/>
			</g>
		</g>
		<g>
			<g>
				<path style="fill:#5D76AD;" d="M593.768,174.794v7.823H333.269v-7.823c0-6.757,5.709-12.268,12.702-12.268h235.107
					C588.058,162.526,593.768,168.037,593.768,174.794z"/>
			</g>
			<g>
				<path style="fill:#AECEEA;" d="M593.768,182.618v187.771c0,6.746-5.709,12.257-12.69,12.257H345.971
					c-6.992,0-12.702-5.511-12.702-12.257V182.618H593.768z"/>
			</g>
			<g>
				<g>
					<g>
						<path style="fill:#2D313D;" d="M462.12,181.471c0,0-4.608-5.368-1.963-9.056c0,0-7.398-16.916,8.082-17.455
							c0,0,2.667-15.092,27.376-1.593c0,0,20.762-3.478,12.236,29.549c1.249,7.308,1.932,15.959-6.317,16.159L462.12,181.471z"/>
					</g>
				</g>
			</g>
			<g>
				<g>
					<g>
						<g>
							<g>
								<path style="fill:#F0AB8F;" d="M505.454,219.836l-4.229-30.519l-21.746,12.579l-1.985,18.476l-10.375,3.687
									c7.181,9.337,33.149,11.658,45.077-2.346L505.454,219.836z"/>
							</g>
						</g>
					</g>
				</g>
				<g>
					<g>
						<g>
							<g>
								<path style="fill:#2D313D;" d="M477.908,215.991c12.808-4.198,15.449-14.513,15.449-14.513l-14.365,4.415L477.908,215.991z"
									/>
							</g>
						</g>
					</g>
				</g>
			</g>
			<g>
				<g>
					<g>
						<path style="fill:#F0AB8F;" d="M498.331,183.414c0,0,2.331-14.847-6.258-19.755c-8.589-4.908-25.592-5.158-29.041,6.463
							c-1.955,6.589-0.444,24.275,1.068,31.357c1.358,6.358,6.218,11.141,12.537,11.138c15.02-0.008,21.08-19.019,21.08-19.019
							L498.331,183.414z"/>
					</g>
				</g>
			</g>
			<g>
				<g>
					<g>
						<g>
							<path style="fill:#253B3E;" d="M542.923,382.96H444.25c1.47-13.997,2.694-25.143,3.524-31.742h93.352L542.923,382.96z"/>
						</g>
					</g>
				</g>
			</g>
			<g>
				<g>
					<g>
						<path style="fill:#5D76AD;" d="M509.282,220.635c0,0-33.431,15.706-35.785,1.158l-5.374,1.793l-9.176,137.277
							c16.584,5.63,40.506,3.652,66.042,0l0.928-126.347l-7.112-11.897L509.282,220.635z"/>
					</g>
				</g>
			</g>
			<g>
				<g>
					<g>
						<path style="fill:#FFFFFF;" d="M473.93,383.479h-36.109l3.625-52.691l8.985-85.415c0.056,0.92,23.066-23.58,23.066-23.58
							s0.618,27.757,1.437,46.995C476.181,298.072,473.93,383.479,473.93,383.479z"/>
					</g>
				</g>
			</g>
			<g>
				<g>
					<g>
						<path style="fill:#FFFFFF;" d="M500.941,383.479c0,0-1.83-86.945-0.965-113.097c0.696-21.304,4.209-35.985,6.679-43.853
							c0.651-2.054,1.223-3.648,1.65-4.77c0.124-0.314,0.236-0.584,0.326-0.831c0.034-0.056,0.056-0.124,0.079-0.18
							c0.123-0.281,0.213-0.505,0.281-0.674c0.112-0.236,0.168-0.359,0.168-0.359l1.167,1.134l0.483,0.483l0.932,0.898
							l14.176,13.862l2.323,2.279l0.786,0.763l12.672,12.38l7.554,43.517l6.162,35.514l4.535,26.141v0.011l0.135,0.786l4.422,25.997
							H500.941z"/>
					</g>
				</g>
			</g>
			<g>
				<g>
					<g>
						<g>
							<path style="fill:#F0AB8F;" d="M404.057,268.583c-1.099-1.259-4.761-5.18-5.112-6.813c-0.325-1.515-1.028-9.924-2.798-9.614
								c-1.855,0.326-0.166,6.012-1.672,6.019c-0.929,0.005-4.424-11.087-6.341-9.876c-1.258,0.795,1.773,7.224,0.968,7.39
								c-0.747,0.154-2.83-8.546-4.753-7.462c-2.015,1.135,3.526,9.361,2.568,9.831c-0.475,0.233-4.585-9.863-6.133-8.936
								c-2.068,1.239,3.473,8.893,2.578,9.538c-0.439,0.317-1.914-2.737-3.022-4.441c-0.615-0.945-1.476-0.603-1.41,0.161
								c0.684,7.905,10.733,17.438,11.239,18.688c0.753,1.858,1.531,3.661,2.333,5.409L404.057,268.583z"/>
						</g>
					</g>
				</g>
			</g>
			<g>
				<g>
					<g>
						<g>
							<path style="fill:#5D567C;" d="M483.052,228.595c10.606,0,25.715-7.028,26.496-7.395l-0.531-1.131
								c-0.23,0.108-23.058,10.732-31.771,6.13c-1.767-0.933-2.792-2.406-3.131-4.506l-1.234,0.2c0.401,2.479,1.674,4.3,3.782,5.412
								C478.398,228.221,480.606,228.595,483.052,228.595z"/>
						</g>
					</g>
				</g>
			</g>
			<g>
				<g>
					<g>
						<path style="fill:#F0AB8F;" d="M498.447,194.755c0,0,7.788,0.666,7.73-6.193c-0.053-6.187-7.583-6.974-9.285-3.89
							L498.447,194.755z"/>
					</g>
				</g>
			</g>
			<g>
				<g>
					<g>
						<path style="fill:#FFFFFF;" d="M456.91,323.75c0,0-40.057,25.586-57.357-17.738c-4.538-11.364-10.496-30.443-10.496-30.443
							l14.542-11.214l21.041,20.566c0,0,5.836-16.931,10.241-30.494c5.95-18.32,19.706-28.254,39.05-33.508L456.91,323.75z"/>
					</g>
				</g>
			</g>
			<g>
				<g>
					<g>
						<path style="fill:#2D313D;" d="M499.944,182.915c0,0-3.123,1.296-2.624,4.535c0,0-3.855,0.335-3.964-3.612
							s-0.46-10.263-0.46-10.263s-1.07-5.052-8.333-5.368c0,0-2.684,7.894-9.947,5.21c0,0-3.986,7.257-12.512,3.316
							c0,0-2.673-15.789,11.393-18.473c14.066-2.684,23.394,1.105,24.486,6C499.334,170.316,499.944,182.915,499.944,182.915z"/>
					</g>
				</g>
			</g>
			<g>
				<g>
					<g>
						<g>
							<g>
								<path style="fill:#2D313D;" d="M474.029,268.595c0.004-11.219-6.166-24.756-7.075-26.689l1.74-3.678l-5.017-0.49
									c1.662-5.037,6.902-10.34,6.957-10.395l-0.754-0.752c-0.241,0.242-5.923,5.991-7.412,11.474l-0.165,0.608l4.783,0.468
									l-1.311,2.77l0.112,0.23c0.071,0.145,7.082,14.654,7.078,26.455H474.029z"/>
							</g>
						</g>
					</g>
				</g>
			</g>
			<g>
				<g>
					<g>
						<g>
							<g>
								
									<rect x="434.905" y="301.499" transform="matrix(0.1151 -0.9933 0.9933 0.1151 98.7385 714.9058)" style="fill:#433A60;" width="31.483" height="1.065"/>
							</g>
						</g>
					</g>
				</g>
			</g>
			<g>
				<g>
					<g>
						<g>
							<path style="fill:#323847;" d="M471.343,293.482c-1.291,0-2.346,1.055-2.346,2.335c0,1.291,1.055,2.335,2.346,2.335
								c1.28,0,2.335-1.044,2.335-2.335C473.678,294.537,472.623,293.482,471.343,293.482z M471.343,296.905
								c-0.606,0-1.089-0.483-1.089-1.089c0-0.595,0.483-1.078,1.089-1.078c0.595,0,1.078,0.483,1.078,1.078
								C472.421,296.422,471.938,296.905,471.343,296.905z"/>
						</g>
					</g>
				</g>
			</g>
			<g>
				<g>
					<g>
						<path style="fill:#2D313D;" d="M508.33,183.148c0.323-0.664,7.836-16.354,2.077-24.989c-2.602-3.903-7.498-5.694-14.552-5.339
							c-0.885-1.04-4.895-5.321-11.265-5.783c-5.473-0.398-11.095,2.139-16.72,7.538l0.737,0.768
							c5.391-5.176,10.738-7.607,15.892-7.246c6.627,0.475,10.656,5.545,10.696,5.596l0.172,0.22l0.279-0.016
							c6.798-0.393,11.464,1.237,13.875,4.851c5.422,8.127-2.072,23.777-2.148,23.934L508.33,183.148z"/>
					</g>
				</g>
			</g>
			<g>
				<g>
					<g>
						<path style="fill:#2D313D;" d="M453.312,262.096c0.005-0.036,0.523-3.651,0.523-8.262c0-6.044-0.891-14.148-5.133-18.43
							l-0.794,0.787c3.975,4.012,4.81,11.809,4.81,17.643c0,4.525-0.507,8.065-0.512,8.1L453.312,262.096z"/>
					</g>
				</g>
			</g>
			<g>
				<path style="fill:#DF6659;" d="M484.468,336.134l-47.055-0.359c-1.561-0.012-2.875-1.171-3.082-2.718l-9.126-68.241
					c-0.253-1.888,1.225-3.563,3.13-3.549l47.055,0.359c1.561,0.012,2.875,1.171,3.082,2.718l9.126,68.242
					C487.85,334.473,486.373,336.148,484.468,336.134z"/>
			</g>
			<g>
				<g>
					<g>
						<g>
							<path style="fill:#F0AB8F;" d="M490.246,297.828c-1.596-0.493-6.773-1.904-7.93-3.11c-1.073-1.118-6.091-7.902-7.433-6.708
								c-1.407,1.252,3.019,5.202,1.742,5.999c-0.788,0.492-9.591-7.107-10.586-5.069c-0.653,1.337,5.305,5.214,4.708,5.778
								c-0.554,0.524-6.899-5.783-7.965-3.85c-1.117,2.025,7.92,6.11,7.352,7.014c-0.281,0.448-9.085-5.981-9.914-4.379
								c-1.109,2.141,7.628,5.74,7.207,6.76c-0.207,0.501-3.067-1.322-4.906-2.19c-1.02-0.481-1.573,0.263-1.115,0.878
								c4.737,6.365,18.296,9.194,19.384,9.992c1.617,1.185,3.227,2.31,4.828,3.376L490.246,297.828z"/>
						</g>
					</g>
				</g>
			</g>
			<g>
				<g>
					<g>
						<path style="fill:#FFFFFF;" d="M530.1,299.631l-42.413-5.54l-6.878,19.201c0,0,21.501,19.548,46.712,26.652
							c10.799,3.043,25.098,4.645,35.822-3.725c23.499-18.341,12.896-57.602-7.165-91.991
							c-11.366-19.485-47.021-24.515-47.021-24.515L530.1,299.631z"/>
					</g>
				</g>
			</g>
			<g>
				<g>
					<g>
						<g>
							<g>
								<path style="fill:#2D313D;" d="M502.057,269.978c3.677-18.698,12.866-27.221,12.958-27.304l0.299-0.272l-2.287-4.54
									l5.037,0.128l-0.057-0.597c-0.756-8.043-7.12-13.7-7.391-13.936l-0.702,0.801c0.061,0.054,5.991,5.334,6.965,12.638
									l-5.604-0.142l2.728,5.415c-1.658,1.637-9.571,10.208-12.992,27.605L502.057,269.978z"/>
							</g>
						</g>
					</g>
				</g>
			</g>
			<g>
				<g>
					<g>
						<path style="fill:#2D313D;" d="M525.486,261.927l1.105-0.171c-0.488-3.155-0.736-6.122-0.736-8.822
							c0-20.216,13.486-20.724,14.059-20.736l-0.02-1.118c-0.152,0.003-15.158,0.506-15.158,21.854
							C524.738,255.69,524.99,258.716,525.486,261.927z"/>
					</g>
				</g>
			</g>
			<g>
				
					<rect x="508.393" y="275.474" transform="matrix(0.1295 -0.9916 0.9916 0.1295 148.6148 763.0135)" style="fill:#2D313D;" width="1" height="42.774"/>
			</g>
			<g>
				<path style="fill:#2D313D;" d="M543.644,342.902c-4.964,0-10.395-0.826-16.259-2.478l0.272-0.963
					c11.328,3.19,20.981,3.255,28.693,0.186c2.416-0.961,4.666-2.247,6.686-3.824l0.615,0.789c-2.095,1.635-4.427,2.969-6.932,3.965
					C552.821,342.127,548.451,342.902,543.644,342.902z"/>
			</g>
			<g>
				<path style="fill:#2D313D;" d="M527.385,340.425c-25.035-7.054-46.697-26.566-46.913-26.763l0.673-0.74
					c0.214,0.195,21.707,19.552,46.511,26.54L527.385,340.425z"/>
			</g>
			<g>
				
					<rect x="532.465" y="275.297" transform="matrix(0.978 -0.2084 0.2084 0.978 -48.1592 117.3967)" style="fill:#2D313D;" width="1" height="23.832"/>
			</g>
			<g>
				<g>
					<path style="fill:#FFFFFF;" d="M354.523,172.572c0,2.427-1.967,4.394-4.394,4.394s-4.394-1.967-4.394-4.394
						c0-2.427,1.967-4.394,4.394-4.394S354.523,170.145,354.523,172.572z"/>
				</g>
				<g>
					<path style="fill:#FFFFFF;" d="M367.371,172.572c0,2.427-1.967,4.394-4.394,4.394c-2.427,0-4.394-1.967-4.394-4.394
						c0-2.427,1.967-4.394,4.394-4.394C365.404,168.178,367.371,170.145,367.371,172.572z"/>
				</g>
				<g>
					<path style="fill:#FFFFFF;" d="M380.22,172.572c0,2.427-1.967,4.394-4.394,4.394c-2.427,0-4.394-1.967-4.394-4.394
						c0-2.427,1.967-4.394,4.394-4.394C378.252,168.178,380.22,170.145,380.22,172.572z"/>
				</g>
			</g>
			<g>
				<path style="fill:#2D313D;" d="M441.819,264.735c-1.009,0-1.865-0.74-2.01-1.739l-0.639-4.385
					c-0.114-0.854,0.554-1.611,1.415-1.605l21.281,0.162c0.706,0.005,1.3,0.53,1.394,1.229l0.54,4.036
					c0.163,1.218-0.785,2.301-2.014,2.301H441.819z"/>
			</g>
			<g>
				
					<rect x="433.926" y="293.279" transform="matrix(0.9912 -0.1325 0.1325 0.9912 -35.5902 60.2074)" style="fill:#2D313D;" width="1" height="8.289"/>
			</g>
			<g>
				<path style="fill:#2D313D;" d="M450.434,331.19l-8.863-0.121c-1.796-0.014-3.332-1.368-3.571-3.151l-2.79-20.862l0.991-0.133
					l2.79,20.862c0.173,1.292,1.287,2.274,2.59,2.284l8.866,0.121L450.434,331.19z"/>
			</g>
			<g>
				
					<rect x="461.682" y="325.222" transform="matrix(0.0137 -0.9999 0.9999 0.0137 125.0281 788.4564)" style="fill:#2D313D;" width="1" height="11.26"/>
			</g>
			<g>
				<rect x="343.456" y="182.118" style="fill:#2D313D;" width="108.091" height="1"/>
			</g>
			<g>
				<path style="fill:#2D313D;" d="M594.268,174.794h-1c0-6.489-5.469-11.769-12.19-11.769h-56.17v-1h56.17
					C588.351,162.026,594.268,167.754,594.268,174.794z"/>
			</g>
			<g>
				<path style="fill:#2D313D;" d="M333.769,174.794h-1c0-7.04,5.922-12.769,13.202-12.769h98.488v1h-98.488
					C339.242,163.026,333.769,168.305,333.769,174.794z"/>
			</g>
			<g>
				<rect x="332.769" y="213.849" style="fill:#2D313D;" width="1" height="28.111"/>
			</g>
			<g>
				<polygon style="fill:#2D313D;" points="594.268,370.389 593.268,370.389 593.268,183.118 519.591,183.118 519.591,182.118 
					594.268,182.118 				"/>
			</g>
			<g>
				<path style="fill:#2D313D;" d="M581.077,383.146H345.971c-7.28,0-13.202-5.723-13.202-12.757V259.325h1v111.064
					c0,6.482,5.474,11.757,12.202,11.757h235.106V383.146z"/>
			</g>
		</g>
		<g>
			<rect x="148.671" y="546.846" style="fill:#2D313D;" width="601.056" height="2"/>
		</g>
		<g>
			
				<rect x="276.766" y="415.5" transform="matrix(0.9637 -0.267 0.267 0.9637 -100.8489 91.2728)" style="fill:#FFFFFF;" width="16.915" height="2"/>
		</g>
		<g>
			
				<rect x="676.851" y="180.475" transform="matrix(0.5152 -0.857 0.857 0.5152 166.6708 672.5365)" style="fill:#8DBEE2;" width="2" height="16.915"/>
		</g>
		<g>
			
				<rect x="278.996" y="113.273" transform="matrix(0.7071 -0.7071 0.7071 0.7071 -4.068 233.64)" style="fill:#8DBEE2;" width="2" height="16.915"/>
		</g>
		<g style="opacity:0.6;">
			
				<rect x="273.237" y="248.564" transform="matrix(0.9444 -0.3287 0.3287 0.9444 -69.2403 104.4132)" style="fill:#DF6659;" width="2" height="16.915"/>
		</g>
		<g style="opacity:0.6;">
			
				<rect x="323.385" y="414.333" transform="matrix(0.9396 -0.3423 0.3423 0.9396 -125.1149 136.5609)" style="fill:#DF6659;" width="1.999" height="16.915"/>
		</g>
		<g>
			
				<rect x="498.552" y="93.11" transform="matrix(0.5733 -0.8194 0.8194 0.5733 139.2497 455.59)" style="fill:#FFFFFF;" width="16.915" height="2"/>
		</g>
		<g style="opacity:0.6;">
			
				<rect x="644.453" y="218.5" transform="matrix(0.3278 -0.9447 0.9447 0.3278 231.5137 764.382)" style="fill:#DF6659;" width="16.915" height="1.999"/>
		</g>
		<g>
			<g>
				<g>
					<g>
						<path style="fill:#AECEEA;" d="M365.769,63.84v48.324c0,6.551,5.31,11.861,11.861,11.861h66.243l14.604,12.982v-12.982h0.322
							c6.551,0,11.861-5.311,11.861-11.861V63.84c0-6.551-5.31-11.861-11.861-11.861H377.63
							C371.079,51.979,365.769,57.289,365.769,63.84z"/>
					</g>
				</g>
				<g>
					<g>
						<rect x="383.982" y="68.374" style="fill:#FFFFFF;" width="68.465" height="2"/>
					</g>
					<g>
						<rect x="383.982" y="80.867" style="fill:#FFFFFF;" width="68.465" height="2"/>
					</g>
					<g>
						<rect x="383.982" y="93.36" style="fill:#FFFFFF;" width="68.465" height="2"/>
					</g>
					<g>
						<rect x="383.982" y="105.852" style="fill:#FFFFFF;" width="48.686" height="2"/>
					</g>
				</g>
			</g>
			<g>
				<g>
					<path style="fill:#2D313D;" d="M366.269,112.164h-1V63.84c0-6.816,5.545-12.361,12.361-12.361h81.168v1H377.63
						c-6.265,0-11.361,5.097-11.361,11.361V112.164z"/>
				</g>
				<g>
					<path style="fill:#2D313D;" d="M458.977,138.12l-15.436-13.721l0.664-0.747l13.771,12.242v-12.368h0.822
						c6.265,0,11.361-5.097,11.361-11.361V63.84h1v48.324c0,6.756-5.449,12.265-12.183,12.36V138.12z"/>
				</g>
				<g>
					<rect x="377.63" y="123.525" style="fill:#2D313D;" width="52.71" height="1"/>
				</g>
			</g>
		</g>
	</g>
</g>
</svg>
